<?xml version="1.0" standalone="no"?>
<!DOCTYPE svg PUBLIC "-//W3C//DTD SVG 20010904//EN"
 "http://www.w3.org/TR/2001/REC-SVG-20010904/DTD/svg10.dtd">
<svg version="1.0" xmlns="http://www.w3.org/2000/svg"
 width="90.000000pt" height="90.000000pt" viewBox="0 0 90.000000 90.000000"
 preserveAspectRatio="xMidYMid meet">

<g transform="translate(0.000000,90.000000) scale(0.100000,-0.100000)"
fill="#000000" stroke="none">
<path d="M250 808 c-91 -45 -190 -170 -214 -271 -6 -26 -5 -26 31 13 20 23 59
53 85 66 27 14 50 30 52 37 21 73 34 103 63 137 19 22 33 40 31 40 -2 0 -23
-10 -48 -22z"/>
<path d="M771 692 c16 -48 6 -159 -19 -207 -25 -50 -98 -119 -146 -139 -28
-12 -37 -23 -46 -56 -6 -23 -14 -48 -17 -56 -4 -12 14 -14 110 -14 105 0 117
-2 130 -20 14 -20 15 -20 35 14 87 147 73 355 -33 481 l-25 30 11 -33z"/>
<path d="M735 130 c4 -6 11 -8 16 -5 14 9 11 15 -7 15 -8 0 -12 -5 -9 -10z"/>
</g>
</svg>
